<svg width="345" height="269" fill="none" xmlns="http://www.w3.org/2000/svg"><path d="M198.992 104.989c0-7.212-15.552-24.694-28.016-24.694-9.572 0-9.727 5.047-19.055 5.047-14.38 0-25.051-23.972-52.705-23.972-29.465 0-67.966 27.575-67.966 49.205 0 30.973 167.742 38.397 167.742-5.586z" fill="#DCE0E9"/><path d="M273.242 211.086c.331-33.652.86-87.71.86-95.711 0-11.738-17.484-46.898-48.067-46.898-33.504 0-50.061 38.34-71.992 38.34-20.101 0-21.686-10.148-46.568-10.148-16.213 0-49.572 20.719-49.572 41.9L80.11 211.07l193.133.016z" fill="#F3F3F3"/><path d="M164.82 155.175c.103-2.135-.59-3.903-1.548-3.949-.958-.046-1.819 1.648-1.922 3.782-.103 2.135.59 3.903 1.548 3.949.958.046 1.819-1.647 1.922-3.782z" fill="#D37C59"/><path d="M158.983 174.795c-.067-.64 1.429-13.933 2.62-18.146a5.312 5.312 0 012.22-.31l-.112 13.098-1.655 6.159-3.073-.801z" fill="#D37C59"/><path d="M169.078 156.285l-10.402.858-.331-2.052 10.012-3.157.721 4.351z" fill="#000"/><path d="M148.357 260.43h-4.556v3.843h4.556v-3.843zM162.452 261.03h-4.556v3.844h4.556v-3.844z" fill="#DE8E68"/><path d="M143.327 196.346v64.295h5.337l6.135-34.398s.843-18.607-11.472-29.897z" fill="#2F3944"/><path d="M160.907 195.078c.149 1.854 2.005 35.592 2.005 35.592v30.72l-5.476.584-3.521-32.663-10.588-32.966c1.602-.878 13.331-2.53 17.58-1.267z" fill="#3B4652"/><path d="M151.148 166.807c10.519 0 11.019 26.667 9.768 28.271-1.251 1.603-16.213 2.695-17.59 1.263-1.376-1.431-5.284-29.534 7.822-29.534z" fill="#fff"/><path d="M166.564 155.173c.104-2.135-.59-3.903-1.548-3.949-.958-.046-1.819 1.648-1.922 3.783-.103 2.134.59 3.902 1.548 3.948.959.047 1.819-1.647 1.922-3.782z" fill="#DE8E68"/><path d="M157.469 264.272v3.844h10.833v-1.399l-5.635-2.445h-5.198zM143.657 263.666v3.844h10.833v-1.399l-5.635-2.445h-5.198zM158.609 155.468l-1.261.197.198 1.258 1.261-.197-.198-1.258z" fill="#000"/><path d="M151.921 169.127c0 .881-4.107.99-4.107 0v-8.743h4.107v8.743z" fill="#D37C59"/><path d="M151.795 164.412c2.381 0 4.311-2.938 4.311-6.563 0-3.624-1.93-6.562-4.311-6.562-2.381 0-4.312 2.938-4.312 6.562 0 3.625 1.931 6.563 4.312 6.563z" fill="#DC8E6C"/><path d="M144.285 155.144c0-2.022.884-3.299 1.602-3.705 1.386-.792 1.965-.439 3.361-1.056 1.512-.659 2.809-2.586 4.58-2.586 1.654 0 1.505.937 2.627 1.214.662.162 4.42-.699 4.42 1.726 0 3.734-4.159 4.038-5.122 4.516-.144-.43-.312-.852-.503-1.263-.757.778-3.5 1.319-3.944 1.494-1.025.422-1.515 2.023-1.515 3.068 0 1.046-.95 1.05-1.188 1.05-2.194 0-4.318-1.403-4.318-4.458z" fill="#5D5452"/><path d="M147.894 160.384a1.43 1.43 0 001.432-1.429 1.43 1.43 0 00-1.432-1.429 1.43 1.43 0 00-1.433 1.429 1.43 1.43 0 001.433 1.429z" fill="#DC8E6C"/><path d="M141.699 171.901a4.153 4.153 0 00-4.159-4.147 4.153 4.153 0 00-4.159 4.147v19.621a4.153 4.153 0 004.159 4.147 4.153 4.153 0 004.159-4.147v-19.621z" fill="#96A0AF"/><path d="M143.993 189.459c5.552 0 10.053-4.858 10.053-10.851 0-5.993-4.501-10.851-10.053-10.851-5.551 0-10.052 4.858-10.052 10.851 0 5.993 4.501 10.851 10.052 10.851z" stroke="#96A0AF" stroke-width="3.69" stroke-miterlimit="10"/><path d="M154.565 173.854c.837 0 5.059.175 6.777.792.132-.835.88-12.791 2.154-16.797.486-.534 2.465-.471 2.465 0 0 .472 2.815 20.086 0 22.412-2.816 2.326-12.365-.792-12.759-1.099-.394-.306 1.363-5.308 1.363-5.308z" fill="#DE8E68"/><path d="M145.573 173.149c.933-3.788 9.384-.637 10.148.227.917 1.036-.721 6.876-1.985 7.146-2.062.446-9.374-2.461-8.163-7.373z" fill="#F4F7F9"/><path d="M40.949 43.475L.003 225.675h81.889l-40.943-182.2z" fill="#14AA4B"/><path d="M40.467 224.863V61.194M40.467 115.168l8.897-9.644M40.467 161.354l13.37-14.491M40.467 209.536l20.796-22.541M40.466 115.168l-8.898-9.644M40.467 161.354L27.1 146.863M40.466 209.536L19.67 186.995" stroke="#3F7251" stroke-width="2.84" stroke-linecap="round" stroke-linejoin="round"/><path d="M344.998 211.086v-60.082a26.855 26.855 0 00-7.9-18.939 27.008 27.008 0 00-18.994-7.877c-1.449 0-2.895.117-4.324.349V55.395c0-4.868-1.94-9.537-5.391-12.98a18.438 18.438 0 00-13.016-5.377 18.436 18.436 0 00-13.018 5.377 18.328 18.328 0 00-5.392 12.98v14.8a26.755 26.755 0 00-8.603-1.421 27.013 27.013 0 00-18.995 7.878 26.857 26.857 0 00-7.899 18.941v49.284h-11.71a18.458 18.458 0 00-12.975 5.382 18.35 18.35 0 00-5.398 12.939v42.669c0 1.768.259 3.526.767 5.219h132.848z" fill="#3F6F50"/><path d="M294.635 175.093c30.311 0 30.311-13.527 30.311-33.983M294.665 193.204c-16.677 0-16.677-7.443-16.677-18.697M294.634 211.086V50.904M294.633 141.199l-16.616-16.572M294.634 107.006l10.055-10.024" stroke="#346345" stroke-width="2.69" stroke-linecap="round" stroke-linejoin="round"/><path d="M212.025 43.475c.888-3.616.447-7.43-1.244-10.75a15.591 15.591 0 00-7.97-7.343 15.655 15.655 0 00-10.846-.39 15.607 15.607 0 00-8.479 6.755 12.414 12.414 0 00-11.814.877 12.358 12.358 0 00-4.159 4.467 12.33 12.33 0 00-1.51 5.906v.478h46.022zM60.29 19.268a15.526 15.526 0 011.244-10.75 15.593 15.593 0 017.97-7.343A15.653 15.653 0 0180.35.785a15.602 15.602 0 018.479 6.754 12.406 12.406 0 0111.819.871 12.343 12.343 0 015.665 10.38v.478H60.291z" fill="#F3F3F3"/><path d="M239.741 181.374h-.004c-11.081 0-20.064 8.925-20.064 19.935v18.193c0 11.01 8.983 19.935 20.064 19.935h.004c11.081 0 20.064-8.925 20.064-19.935v-18.193c0-11.01-8.983-19.935-20.064-19.935z" fill="#DCE0E9"/><path d="M240.133 254.345v-54.924M240.133 222.96c11.016 0 11.016-6.558 11.016-16.478M240.132 212.759c-7.869 0-7.869-4.366-7.869-10.985" stroke="#82A38E" stroke-width="2.39" stroke-linecap="round" stroke-linejoin="round"/><path d="M105.999 193.061h-.003c-7.211 0-13.057 5.808-13.057 12.974v11.84c0 7.165 5.846 12.974 13.057 12.974h.003c7.212 0 13.058-5.809 13.058-12.974v-11.84c0-7.166-5.846-12.974-13.058-12.974z" fill="#DCE0E9"/><path d="M106.255 240.552v-35.746M106.255 220.126c7.17 0 7.17-4.268 7.17-10.724M106.254 213.487c-5.121 0-5.121-2.841-5.121-7.149" stroke="#82A38E" stroke-width="2" stroke-linecap="round" stroke-linejoin="round"/></svg>