<svg width="332" height="125" viewBox="0 0 332 125" xmlns="http://www.w3.org/2000/svg"><title>Group_485</title><g fill="#FFFFFF"><path d="M293.7 56.9l-24.4-24.4a4.769 4.769 0 0 1 0-6.8l24.4-24.4a2.115 2.115 0 0 1 3.6 1.5v52.7a2.07 2.07 0 0 1-3.6 1.4zm11-56.3a2.159 2.159 0 0 0-2.3 2.1v11.4a2.061 2.061 0 0 0 1.8 2.1 13.029 13.029 0 0 1 0 25.8 2.148 2.148 0 0 0-1.8 2.1v11.4a2.1 2.1 0 0 0 2.3 2.1c14.893-1.144 26.394-13.563 26.394-28.5S319.594 1.744 304.7.6zM3.7 116.3a5.572 5.572 0 0 1-2.8-5.1 5.787 5.787 0 0 1 5.9-5.9c1.08.026 2.141.3 3.1.8 6.2 4.1 12.6 6.2 18.4 6.2 6.3 0 9.9-2.7 9.9-6.9v-.2c0-4.9-6.8-6.6-14.3-8.9-9.4-2.7-20-6.5-20-18.7v-.2c0-12.1 10-19.4 22.7-19.4a43.577 43.577 0 0 1 20.1 5.2 6.125 6.125 0 0 1 3.5 5.6 5.87 5.87 0 0 1-6 5.9 5.664 5.664 0 0 1-2.9-.7c-5.2-2.7-10.5-4.3-15-4.3-5.7 0-9 2.7-9 6.3v.2c0 4.7 6.9 6.6 14.4 9.1 9.3 2.9 19.8 7.1 19.8 18.6v.2c0 13.4-10.4 20-23.7 20a45.276 45.276 0 0 1-24.1-7.8m88.1-25.1V91c0-18.2 14.5-33.3 34.1-33.3s34 14.8 34 33.1v.2c0 18.1-14.5 33.2-34.2 33.2-19.5 0-33.9-14.9-33.9-33m53.4 0V91c0-11.2-8.1-20.5-19.6-20.5-11.7 0-19.2 9.2-19.2 20.3v.2c0 11.1 8.1 20.4 19.5 20.4 11.8 0 19.3-9.2 19.3-20.2m35.1 24.8V85.3A14.287 14.287 0 0 1 192.7 71a14.023 14.023 0 0 1 15.6 13.9V116a7.341 7.341 0 0 0 7.3 7.3 7.341 7.341 0 0 0 7.3-7.3V86.4a28.616 28.616 0 0 0-28.7-28.6c-15.816-.011-28.656 12.784-28.7 28.6V116a7.341 7.341 0 0 0 7.3 7.3 7.323 7.323 0 0 0 7.5-7.3z"/><path d="M85.4 72.2a6.68 6.68 0 0 0 6.7-6.6 6.616 6.616 0 0 0-6.7-6.6H74.1V48.2a7.3 7.3 0 1 0-14.6 0v53.7c.386 11.927 9.88 21.55 21.8 22.1.3 0 .7.1 1 .1h2.9a6.744 6.744 0 0 0 6.8-6.8 6.807 6.807 0 0 0-6.8-6.8h-2a9.154 9.154 0 0 1-9.1-9.2V72.2h11.3zm167.9 17.6a6.274 6.274 0 0 0 6.3 6.3h23.8a6.274 6.274 0 0 0 6.3-6.3c0-18.2-12.2-32.1-29.1-32.1-19.3 0-32.5 15.1-32.5 33.3v.2a32.784 32.784 0 0 0 33.3 33 33.2 33.2 0 0 0 21.2-7.3 6.689 6.689 0 0 0 .3-10.2 6.581 6.581 0 0 0-8.8.1 18.525 18.525 0 0 1-12.5 4.5c-11.2 0-19.2-9.3-19.2-20.4v-.2c0-11.1 6.3-20.3 17.8-20.3 7.6 0 13 5.5 15.1 13.1h-15.9a6.234 6.234 0 0 0-6.1 6.3z"/></g></svg>