<svg width="265" height="219" viewBox="0 0 265 219" fill="none" xmlns="http://www.w3.org/2000/svg">
<path d="M73.8508 202.988C97.9588 186.299 143.928 161.813 187.912 144.897C188.691 144.2 189.484 143.497 190.29 142.788C208.31 126.857 232.371 106.981 235.269 85.2511C238.122 63.4734 219.816 39.7935 197.42 27.0038C175.024 14.2589 148.541 12.3538 122.008 12.3007C95.4747 12.2475 68.8938 14.0155 55.6678 28.4249C42.5032 42.7923 42.6934 69.8403 40.6961 94.5189C38.6988 119.198 34.4691 141.546 40.8863 162.468C46.1314 179.686 58.6218 196 73.8508 202.988Z" fill="#F8F8F8"/>
<path d="M204.468 138.862C202.132 138.062 194.49 127.952 194.49 115.954C194.49 102.015 209.235 75.6295 210.636 66.2303C211.528 60.2522 215.554 7.58569 246.124 7.58569C262.793 7.58569 264.184 40.1781 264.184 54.7553C264.184 88.808 214.67 117.814 214.67 135.502C211.353 136.862 207.944 137.985 204.468 138.862V138.862Z" fill="#DCE0E9"/>
<path d="M208.411 136.495C208.411 109.187 228.606 60.5354 246.532 43.0265" stroke="#82A28E" stroke-width="2" stroke-miterlimit="10" stroke-linecap="round"/>
<path d="M90.5458 192.29C88.9849 191.825 84.7412 186.415 84.7412 179.444C84.7412 172.73 86.6267 162.94 86.6267 153.856C86.6267 148.804 84.7412 147.014 84.7412 141.002C84.7412 131.421 93.8216 128.504 97.005 128.504C101.691 128.504 104.197 132.512 104.197 134.636C104.197 137.598 103.358 139.847 103.358 143.126C103.358 149.534 105.596 150.337 105.361 155.859C104.661 172.003 97.9589 187.786 92.0676 191.367L90.5458 192.29Z" fill="#DCE0E9"/>
<path d="M90.5461 192.29C92.4595 190.639 81.7455 138.44 72.4525 129.203C62.3427 119.163 54.0317 113.848 51.2874 110.553C46.42 104.709 43.3205 82.6713 21.8952 82.6713C16.2277 82.6713 2.87293 87.3569 0.469971 107.188C-0.316097 113.697 -1.74557 123.656 11.8022 138.088C20.9273 147.811 32.3407 144.463 43.4967 154.998C51.528 162.582 50.4035 174.02 57.9033 183.685C63.9037 191.406 79.4824 201.821 90.5461 192.29Z" fill="#DCE0E9"/>
<path d="M87.6938 192.266C87.6938 179.166 46.5903 121.307 30.0549 112.85" stroke="#82A28E" stroke-width="2" stroke-miterlimit="10" stroke-linecap="round"/>
<path d="M90.2631 191.166C89.8519 188.061 88.4008 162.805 93.3158 153.193" stroke="#82A28E" stroke-width="2" stroke-linecap="round" stroke-linejoin="round"/>
<path d="M57.906 216.513C70.2733 198.853 180.751 138.603 247.119 127.472" stroke="#DDDDDD" stroke-width="3" stroke-miterlimit="10" stroke-linecap="round"/>
<path d="M126.162 195.947V203.221H106.412V200.143L118.648 194.523L126.162 195.947Z" fill="#333333"/>
<path d="M169.005 188.974C170.003 191.212 172.361 197.011 172.361 197.011L162.506 203.207H153.577L152.531 199.783L163.748 191.198L169.005 188.974Z" fill="#333333"/>
<path d="M134.868 30.1925C139.467 30.1925 143.195 25.4909 143.195 19.6911C143.195 13.8913 139.467 9.1897 134.868 9.1897C130.268 9.1897 126.54 13.8913 126.54 19.6911C126.54 25.4909 130.268 30.1925 134.868 30.1925Z" fill="#DE8E68"/>
<path d="M128.803 0.933434C127.712 -0.565969 124.632 -0.227485 121.924 1.7223C120.899 2.44533 120.028 3.36483 119.362 4.42738C119.274 4.38811 119.179 4.36627 119.082 4.36304C117.767 4.36304 95.9114 16.0533 96.1184 21.4467C96.3254 26.8401 103.657 35.4896 106.217 37.1485C106.217 37.1485 117.767 31.7551 117.146 30.0235C116.525 28.2919 109.873 22.7503 108.707 21.6537C110.077 20.9376 121.049 10.0669 122.288 8.83607C123.589 8.55782 124.815 8.00357 125.883 7.21079C128.585 5.2582 129.897 2.44962 128.803 0.933434Z" fill="#DE8E68"/>
<path d="M122.526 46.6112C125.044 44.5859 120.876 27.6029 116.408 27.1861C111.941 26.7693 104.15 35.1866 104.464 37.5756C104.777 39.9646 116.165 51.7025 122.526 46.6112Z" fill="#109742"/>
<path d="M112.531 87.2732C112.531 90.0706 113.93 186.86 116.448 195.253C118.686 196.372 124.56 196.651 126.518 195.812C128.476 194.973 140.972 88.8061 140.972 84.1457C140.972 79.4852 112.531 87.2732 112.531 87.2732Z" fill="#2D3844"/>
<path d="M162.699 192.226C160.028 188.03 125.242 106.548 122.515 86.4568C125.371 84.2441 146.626 80.7166 148.346 84.7337C150.066 88.7507 170.725 188.067 170.017 189.356C169.31 190.646 164.708 192.657 162.699 192.226Z" fill="#3B4652"/>
<path d="M134.985 33.283C153.029 33.283 151.91 83.2164 147.993 86.2936C144.077 89.3707 113.445 89.5106 111.487 87.2727C109.529 85.0347 104.902 33.283 134.985 33.283Z" fill="#14AA4B"/>
<path d="M148.113 16.1245C148.113 13.9956 146.08 12.4599 146.08 11.2794C146.08 10.0989 146.776 7.98404 145.218 6.47065C143.324 4.63276 140.306 5.39925 137.604 5.39925C135.064 5.39925 133.662 2.448 130.196 2.448C127.886 2.448 128.179 5.4468 127.315 6.19091C126.674 6.75039 121.681 7.82459 121.681 10.1073C121.681 12.6585 121.748 16.0825 127.046 16.0825C127.399 14.8572 128.725 12.1661 130.235 10.9689C131.013 11.3045 135.271 13.0613 136.325 13.3718C137.38 13.6823 138.921 18.1973 140.555 18.7428C142.189 19.2883 142.292 22.2955 143.487 22.1668C144.681 22.0381 148.113 21.5346 148.113 16.1245Z" fill="#5D5452"/>
<path d="M142.038 22.7185C143.254 22.7185 144.239 21.7329 144.239 20.517C144.239 19.3011 143.254 18.3154 142.038 18.3154C140.822 18.3154 139.836 19.3011 139.836 20.517C139.836 21.7329 140.822 22.7185 142.038 22.7185Z" fill="#DE8E68"/>
<path d="M139.031 37.2003C138.678 38.4172 131.279 36.9402 131.422 35.5638L132.686 23.3392L141.601 25.2582C141.601 25.2582 139.389 35.9891 139.031 37.2003Z" fill="#DE8E68"/>
<path d="M161.074 100.432C160.716 99.302 160.015 98.3116 159.067 97.5985C158.489 90.537 155.656 68.2351 153.75 59.6837C148.843 60.425 142.156 62.691 142.156 62.691C142.936 65.6796 148.346 88.9138 152.386 99.0064C152.041 99.6706 151.833 100.397 151.775 101.144C151.718 101.89 151.811 102.64 152.049 103.35C152.949 106.142 155.701 107.751 158.192 106.949C160.683 106.146 161.974 103.224 161.074 100.432Z" fill="#DE8E68"/>
<path d="M143.921 41.0071C152.814 39.5147 157.51 56.5294 155.777 59.4859C154.045 62.4423 142.426 65.0191 139.63 63.5981C136.218 61.8586 136.352 42.2779 143.921 41.0071Z" fill="#24B258"/>
</svg>
