<svg width="282" height="238" fill="none" xmlns="http://www.w3.org/2000/svg"><path d="M218.538 27.652c13.148 11.813 21.752 28.295 35.567 51.986 13.878 23.69 33.016 54.585 25.759 73.004-7.258 18.419-41.04 24.356-72.938 36.435-31.897 12.079-61.928 30.229-89.554 26.691-27.625-3.538-52.847-28.76-59.19-56.654-6.407-27.962 6.005-58.591 14.945-86.486 8.877-27.892 14.282-53.06 29.829-64.455 15.547-11.395 41.242-8.947 62.998-4.21 21.752 4.794 39.435 11.88 52.584 23.69z" fill="#F8F8F8"/><path d="M98.442 226.368h-9.146V237.2H75.888v-10.832H48.455v-4.09l31.696-43.319h9.145v35.868h9.145v11.541zm-22.554-11.541v-13.496l-9.587 13.496h9.587zM106.076 208.168c0-16.78 4.883-30.01 21.914-30.01 16.946 0 21.662 13.23 21.662 30.01 0 16.693-4.704 29.832-21.662 29.832-17.031 0-21.914-13.139-21.914-29.832zm30.185 0c0-10.121-1.954-17.934-8.257-17.934-6.393 0-8.61 7.813-8.61 17.934 0 10.031 2.217 17.668 8.61 17.668 6.303.012 8.257-7.637 8.257-17.668zM204.802 226.368h-9.145V237.2h-13.406v-10.832H154.81v-4.09l31.701-43.319h9.146v35.868h9.145v11.541zm-22.551-11.541v-13.496l-9.589 13.496h9.589z" fill="#DCE0E9"/><path d="M205.281 226.637h4.97v-4.208h-4.97v4.208z" fill="#DE8E68"/><path d="M105.383 97.243a16.53 16.53 0 00-21.239-19.626 16.529 16.529 0 00-8.977 7.172 13.114 13.114 0 00-18.512 11.946v.508h48.728zM240.379 92.438c-.67-2.799-.337-5.75.938-8.318a11.876 11.876 0 016.009-5.683 11.52 11.52 0 018.177-.3 11.826 11.826 0 016.393 5.225 9.15 9.15 0 018.908.68 9.476 9.476 0 013.136 3.456 9.734 9.734 0 011.138 4.57v.37h-34.699zM.374 54.419a13.457 13.457 0 011.037-9.15 13.112 13.112 0 016.649-6.25 12.815 12.815 0 019.047-.332 13.066 13.066 0 017.073 5.749 10.168 10.168 0 019.859.741 10.435 10.435 0 013.47 3.804 10.648 10.648 0 011.255 5.03v.408H.374z" fill="#DCE0E9"/><path d="M210.718 225.979v4.208h-11.824v-1.531l6.15-2.677h5.674z" fill="#000"/><path d="M128.028 175.023h4.97v-4.207h-4.97v4.207z" fill="#DE8E68"/><path d="M133.465 174.365v4.208h-11.821v-1.528l6.15-2.68h5.671z" fill="#000"/><path d="M205.109 118.094c.251 2.39 5.531 105.445 5.531 105.445h-5.531l-26.895-97.033 26.895-8.412z" fill="#2F3944"/><path d="M207.949 106.74c0 13.996-5.146 26.589-15.562 26.589-14.299 0-33.23-9.116-38.439-14.261-1.3 3.845-19.743 52.277-19.743 52.277h-7.638s4.894-56.391 14.069-70.854c3.018-4.02 27.649-3.016 40.093 0 12.444 3.015 27.22 6.249 27.22 6.249z" fill="#3B4652"/><path d="M171.014 25.196a1.796 1.796 0 011.911-1.438c1.119.079 2.948 3.036 2.948 5.429 0 2.393-.675 3.293-.47 5.031.204 1.739 4.631 25.312 4.631 26.75 1.116.078 5.11-.48 5.11-.48l-2.796 11.261h-8.14l-5.26-45.355 2.066-1.198z" fill="#D37C59"/><path d="M178.821 29.21l-1.715 6.93s-16.92-1.967-18.767-2.422c-1.846-.456.935-11.916 2.831-11.448 1.897.467 17.651 6.94 17.651 6.94z" fill="#353535"/><path d="M194.324 49.712c21.645 0 16.306 55.921 13.779 58.013-2.527 2.092-29.437-4.967-31.672-8.082-2.236-3.115 2.018-49.931 17.893-49.931z" fill="#14AA4B"/><path d="M186.599 63.909c-1.189.403-8.164 3.123-8.164 3.123-.116-1.402-5.478-29.218-5.808-30.921.676-1.7 1.011-3.517.985-5.347 0-4.567-1.856-8.275-4.144-8.275-2.287 0-4.14 3.708-4.14 8.275a13.7 13.7 0 001.081 5.569c-.257 3.477-2.565 36.49 2.145 41.198 4.967 4.967 17.043.487 24.382-2.85 1.572-.543-.569-12.332-6.337-10.772z" fill="#DE8E68"/><path d="M181.42 32.073l-4.377-1.162-.812 3.058 4.377 1.163.812-3.059z" fill="#303030"/><path d="M208.118 59.985c3.299 6.405-9.765 17.943-13.379 17.084-3.614-.859-9.443-13.756-8.353-16.07 1.089-2.314 18.524-7.246 21.732-1.014z" fill="#24B358"/><path d="M195.651 55.132c0 1.084-6.612 1.359-6.612 0V42.65h6.612v12.482z" fill="#D37C59"/><path d="M189.956 49.897c4.767 0 8.631-6.25 8.631-13.958 0-7.709-3.864-13.958-8.631-13.958s-8.631 6.25-8.631 13.958c0 7.709 3.864 13.958 8.631 13.958z" fill="#DC8E6C"/><path d="M183.49 26.691a5.662 5.662 0 002.556 5.113c2.574 1.753 4.409.979 6.297 2.63.996.996 3.436 2.922 3.459 5.896 0 2.2.722 3.31 1.356 3.31.634 0 2.305-.438 3.38-.438 10.56 0 22.96 10.901 46.749 10.901 12.427 0 31.927-3.135 31.927-21.384 0-9.856-3.547-21.765-22.296-21.765-11.907 0-20.248 5.844-30.031 5.844-12.563 0-17.408-4.55-26.089-4.55-6.182 0-20.096 3.583-20.096 12.967 0 3.565 1.116 4.6 1.461 4.784.111-.392.792-2.414 1.327-3.308z" fill="#353535"/><path d="M194.915 41.446a2.203 2.203 0 100-4.405 2.203 2.203 0 000 4.405z" fill="#DC8E6C"/></svg>